<svg width="28" height="27" viewBox="0 0 28 27" fill="none" xmlns="http://www.w3.org/2000/svg">
<path d="M16.0428 20.8064C13.8664 19.998 11.6279 19.8737 9.5759 20.4333C8.14571 20.8064 6.77772 21.5526 5.53408 22.4853L4.66352 23.2315L4.41479 23.4802L4.97443 23.9777C5.03661 23.9777 5.03662 24.0399 5.0988 24.102C5.22316 24.2264 5.34753 24.2886 5.53408 24.4129L5.90715 24.6617L6.28025 24.3508C6.34243 24.2886 6.46679 24.1642 6.59116 24.102C7.71043 23.1693 8.95406 22.5475 10.2599 22.2366C11.9388 21.8013 13.7421 21.8635 15.5453 22.5475C17.0377 23.1071 20.0846 23.7911 23.7533 22.2366L23.8777 22.1744L24.0643 21.9879C24.0643 21.9257 24.1264 21.9257 24.1886 21.8635C24.4995 21.4904 24.8104 21.1173 25.0592 20.682L26.3028 18.7544L24.313 19.8737C21.3904 21.4904 18.7166 21.8013 16.0428 20.8064Z" fill="#55B02E"/>
<path d="M7.52389 14.0906C9.2028 13.6553 11.0061 13.7175 12.8093 14.4015C14.7992 15.1477 19.8981 16.2048 25.6188 11.0437L26.5515 10.111L26.6137 10.0488L26.8624 9.80006L26.7381 9.48915C26.6759 9.24042 26.5515 8.92952 26.4272 8.61861L26.1162 7.74805L25.4944 8.36987C25.4322 8.49423 25.3079 8.55641 25.1835 8.68077C22.4475 11.479 18.2192 14.3393 13.369 12.5982C11.1926 11.7899 8.95407 11.6655 6.90207 12.2251C4.91225 12.7848 3.17115 13.8419 1.55443 15.3342V15.2721L0.6217 16.267C0.6217 16.3291 0.55953 16.3292 0.497348 16.3913L0.310791 16.5779L0.372977 16.8266C0.435158 17.1375 0.559518 17.4484 0.6217 17.7593L0.994795 18.7542L1.61661 17.9459C1.67879 17.8215 1.80315 17.7593 1.86534 17.635C3.17115 16.4535 4.97443 14.7746 7.52389 14.0906Z" fill="#55B02E"/>
<path d="M1.49238 12.9715C2.92256 11.4792 4.53928 10.5464 6.28037 10.049C7.95928 9.61371 9.76255 9.67589 11.5658 10.3599C17.1622 12.4119 22.0124 9.05408 24.1266 7.2508L24.9349 6.44245L25.2458 6.19371L24.9971 5.82063C24.8106 5.63408 24.6862 5.38535 24.4997 5.13663L24.1266 4.63916L23.6913 5.07444C23.6291 5.13662 23.5047 5.26098 23.4426 5.32316C20.8309 7.81044 16.7891 10.3599 12.1876 8.61881C10.0113 7.81045 7.77273 7.68608 5.72074 8.24572C4.41492 8.61881 3.17128 9.24062 1.92764 10.049L0.621818 11.1061C0.497455 11.2304 0.435273 11.2926 0.310909 11.417L0.186557 11.5413V11.7279C0.124375 12.1632 0.124367 12.5984 0.0621856 12.9715L0 14.5261L1.0571 13.4068C1.18146 13.2824 1.30583 13.0959 1.49238 12.9715Z" fill="#55B02E"/>
<path d="M17.8461 25.0349L17.7217 25.408L17.8461 25.0349C17.6595 24.9727 17.5352 24.9105 17.3486 24.8483C15.1723 24.04 12.9337 23.9156 10.8817 24.4753C10.4464 24.5996 10.0112 24.724 9.5759 24.9105L8.08352 25.5945L7.71045 25.7811L8.95409 26.2163C9.32718 26.3407 9.70026 26.4651 10.0734 26.5894L10.2599 26.6516L10.4464 26.5894C10.633 26.5273 10.8195 26.4029 11.0061 26.4029C11.1304 26.4029 11.2548 26.3407 11.3792 26.2785C12.8715 25.9054 14.4883 25.9054 16.2293 26.4651C16.4159 26.5272 16.5403 26.5894 16.7268 26.6516L17.0377 26.776L17.2243 26.7138C17.6595 26.5894 18.157 26.4651 18.5301 26.2785L20.2712 25.6567L18.4679 25.2214C18.2814 25.1592 18.0326 25.0971 17.8461 25.0349Z" fill="#55B02E"/>
<path d="M27.36 12.1631L26.4273 13.0958C26.3029 13.2202 26.1786 13.3445 26.0542 13.4689C23.5047 15.894 19.4007 18.5056 14.7993 16.7645C12.6229 15.9562 10.3844 15.8318 8.33237 16.3915C6.40473 16.9511 4.66363 17.946 3.10908 19.4384L2.30073 20.3089L2.052 20.6198L2.30073 20.9929C2.48727 21.2416 2.61164 21.4282 2.73601 21.6769L3.10908 22.2365L3.54436 21.6769C3.60654 21.6147 3.7309 21.4904 3.79309 21.4282C5.28545 19.8114 6.90218 18.8165 8.76763 18.3191C10.4465 17.8838 12.2498 17.946 14.0531 18.63C15.6076 19.1896 17.2244 19.3762 18.8411 19.1896C21.7015 18.8787 24.5618 17.262 26.676 15.4587C26.8004 15.3344 26.9247 15.2722 27.0491 15.1478L27.2356 14.9613V14.7747C27.2356 14.4016 27.2978 13.9664 27.2978 13.5933L27.36 12.1631Z" fill="#55B02E"/>
<path d="M3.73094 6.44226L3.5444 6.06916L3.73094 6.44226C4.10403 6.25571 4.53932 6.13134 4.91241 6.00698C6.59132 5.5717 8.39459 5.63389 10.1979 6.31789C11.3793 6.75316 12.5608 6.9397 13.8666 6.9397C16.4782 6.9397 19.0899 6.00698 21.5149 4.20371L22.4477 3.45752L22.7586 3.20879L22.1989 2.77351C22.0124 2.58697 21.7637 2.40043 21.5149 2.27607L21.1418 2.02734L20.8309 2.27607C20.7066 2.33825 20.6444 2.46261 20.52 2.52479C17.2244 5.01206 13.9288 5.69607 10.8197 4.51462C8.58114 3.70625 6.34258 3.51971 4.10403 4.20371C3.91749 4.26589 3.73094 4.32806 3.48222 4.39025L3.35786 4.45243L3.17131 4.63897C3.17131 4.70115 3.10914 4.70116 3.04695 4.76334C2.79823 5.13643 2.48731 5.44735 2.23858 5.82044L1.05713 7.62371L2.98477 6.62879C3.29568 6.62879 3.54439 6.50444 3.73094 6.44226Z" fill="#55B02E"/>
<path d="M8.82991 2.21393L9.01645 2.27611C9.82482 2.58702 11.0685 2.89793 12.623 2.89793C14.2397 2.89793 15.7943 2.52484 17.3488 1.90302L19.2765 0.970292L17.9706 0.53503C17.5976 0.410667 17.2245 0.286303 16.7892 0.224121H16.6026L16.4161 0.286288C16.2296 0.34847 16.043 0.472848 15.8565 0.53503C13.991 1.21903 12.1255 1.34339 10.3223 0.845939C10.1357 0.783757 9.94919 0.721564 9.76264 0.659382L9.5761 0.597197L9.38955 0.659382C9.01646 0.783746 8.64337 0.908117 8.27028 1.09466L6.84009 1.71648L8.33247 2.15174C8.45683 2.08956 8.64337 2.15175 8.82991 2.21393Z" fill="#55B02E"/>
</svg>
